<?xml version="1.0" encoding="utf-8"?>
<svg xmlns="http://www.w3.org/2000/svg" version="1.1" width="1000" height="800">

<line x1="0" y1="0" x2="1000" y2="0" stroke="lightgrey" />
<text x="5" y="-5" fill="lightgrey" >0</text>
<line x1="0" y1="100" x2="1000" y2="100" stroke="lightgrey" />
<text x="5" y="95" fill="lightgrey" >100</text>
<line x1="0" y1="200" x2="1000" y2="200" stroke="lightgrey" />
<text x="5" y="195" fill="lightgrey" >200</text>
<line x1="0" y1="300" x2="1000" y2="300" stroke="lightgrey" />
<text x="5" y="295" fill="lightgrey" >300</text>
<line x1="0" y1="400" x2="1000" y2="400" stroke="lightgrey" />
<text x="5" y="395" fill="lightgrey" >400</text>
<line x1="0" y1="500" x2="1000" y2="500" stroke="lightgrey" />
<text x="5" y="495" fill="lightgrey" >500</text>
<line x1="0" y1="600" x2="1000" y2="600" stroke="lightgrey" />
<text x="5" y="595" fill="lightgrey" >600</text>
<line x1="0" y1="700" x2="1000" y2="700" stroke="lightgrey" />
<text x="5" y="695" fill="lightgrey" >700</text>
<line x1="0" y1="800" x2="1000" y2="800" stroke="lightgrey" />
<text x="5" y="795" fill="lightgrey" >800</text>
<line x1="0" y1="0" x2="0" y2="800" stroke="lightgrey" />
<text x="5" y="15" fill="lightgrey" >0</text>
<line x1="100" y1="0" x2="100" y2="800" stroke="lightgrey" />
<text x="105" y="15" fill="lightgrey" >100</text>
<line x1="200" y1="0" x2="200" y2="800" stroke="lightgrey" />
<text x="205" y="15" fill="lightgrey" >200</text>
<line x1="300" y1="0" x2="300" y2="800" stroke="lightgrey" />
<text x="305" y="15" fill="lightgrey" >300</text>
<line x1="400" y1="0" x2="400" y2="800" stroke="lightgrey" />
<text x="405" y="15" fill="lightgrey" >400</text>
<line x1="500" y1="0" x2="500" y2="800" stroke="lightgrey" />
<text x="505" y="15" fill="lightgrey" >500</text>
<line x1="600" y1="0" x2="600" y2="800" stroke="lightgrey" />
<text x="605" y="15" fill="lightgrey" >600</text>
<line x1="700" y1="0" x2="700" y2="800" stroke="lightgrey" />
<text x="705" y="15" fill="lightgrey" >700</text>
<line x1="800" y1="0" x2="800" y2="800" stroke="lightgrey" />
<text x="805" y="15" fill="lightgrey" >800</text>
<line x1="900" y1="0" x2="900" y2="800" stroke="lightgrey" />
<text x="905" y="15" fill="lightgrey" >900</text>
<line x1="1000" y1="0" x2="1000" y2="800" stroke="lightgrey" />
<text x="1005" y="15" fill="lightgrey" >1000</text>
<line x1="200" y1="100" x2="200" y2="200" stroke="black" />
<line x1="100" y1="200" x2="200" y2="200" stroke="black" />
<line x1="200" y1="200" x2="300" y2="200" stroke="black" />
<line x1="200" y1="200" x2="200" y2="300" stroke="black" />
<text x="185" y="85" fill="black" >A</text>
<polygon points=" 10,30 10,10 20,10 20,30" style="fill:rgb(0,0,0)" />
<text x="22" y="23" fill="black" > centralite minimum</text>
<polygon points=" 10,60 10,40 20,40 20,60" style="fill:rgb(0,255,255)" />
<text x="22" y="53" fill="black" > centralite maximum</text>
<text x="300" y="50" fill="black" >CENTRALITE INTERMEDIAIRE NORMALISE</text>
<circle cx="200" cy="100" r="5" fill="rgb(0,0,0)" />
<text x="85" y="185" fill="black" >B</text>
<polygon points=" 10,30 10,10 20,10 20,30" style="fill:rgb(0,0,0)" />
<text x="22" y="23" fill="black" > centralite minimum</text>
<polygon points=" 10,60 10,40 20,40 20,60" style="fill:rgb(0,255,255)" />
<text x="22" y="53" fill="black" > centralite maximum</text>
<text x="300" y="50" fill="black" >CENTRALITE INTERMEDIAIRE NORMALISE</text>
<circle cx="100" cy="200" r="5" fill="rgb(0,0,0)" />
<text x="185" y="185" fill="black" >C</text>
<polygon points=" 10,30 10,10 20,10 20,30" style="fill:rgb(0,0,0)" />
<text x="22" y="23" fill="black" > centralite minimum</text>
<polygon points=" 10,60 10,40 20,40 20,60" style="fill:rgb(0,255,255)" />
<text x="22" y="53" fill="black" > centralite maximum</text>
<text x="300" y="50" fill="black" >CENTRALITE INTERMEDIAIRE NORMALISE</text>
<circle cx="200" cy="200" r="5" fill="rgb(0,300,300)" />
<text x="285" y="185" fill="black" >D</text>
<polygon points=" 10,30 10,10 20,10 20,30" style="fill:rgb(0,0,0)" />
<text x="22" y="23" fill="black" > centralite minimum</text>
<polygon points=" 10,60 10,40 20,40 20,60" style="fill:rgb(0,255,255)" />
<text x="22" y="53" fill="black" > centralite maximum</text>
<text x="300" y="50" fill="black" >CENTRALITE INTERMEDIAIRE NORMALISE</text>
<circle cx="300" cy="200" r="5" fill="rgb(0,0,0)" />
<text x="185" y="285" fill="black" >E</text>
<polygon points=" 10,30 10,10 20,10 20,30" style="fill:rgb(0,0,0)" />
<text x="22" y="23" fill="black" > centralite minimum</text>
<polygon points=" 10,60 10,40 20,40 20,60" style="fill:rgb(0,255,255)" />
<text x="22" y="53" fill="black" > centralite maximum</text>
<text x="300" y="50" fill="black" >CENTRALITE INTERMEDIAIRE NORMALISE</text>
<circle cx="200" cy="300" r="5" fill="rgb(0,0,0)" />


</svg>
